<svg viewBox="0 0 150 20" width="150" height="20" xmlns="http://www.w3.org/2000/svg" data-loop="0.8"><style>.px{shape-rendering:crispEdges}.bl{animation:bl .8s steps(1) infinite}.bl2{animation-delay:-.4s}@keyframes bl{50%{opacity:0}}.beat{transform-box:fill-box;transform-origin:center;animation:be .8s ease-in-out infinite}@keyframes be{50%{transform:scale(1.25)}}.fl{animation:fl .8s steps(1) infinite}@keyframes fl{50%{fill:var(--alt)}}.bob{animation:bob .8s steps(2) infinite}@keyframes bob{50%{transform:translateY(-1px)}}@media (prefers-reduced-motion: reduce){*{animation:none!important}}</style><rect width="150" height="20" fill="#fff"></rect><rect x="1.5" y="1.5" width="147" height="17" fill="none" stroke="#ff4fd8" stroke-dasharray="2 1"></rect><g transform="translate(133 4) scale(1.5)"><g class="bob" style="transform-box:fill-box;transform-origin:center"><rect class="px" x="1" y="0" width="1.02" height="1.02" fill="#111111"></rect><rect class="px" x="2" y="0" width="1.02" height="1.02" fill="#111111"></rect><rect class="px" x="3" y="0" width="1.02" height="1.02" fill="#111111"></rect><rect class="px" x="4" y="0" width="1.02" height="1.02" fill="#111111"></rect><rect class="px" x="5" y="0" width="1.02" height="1.02" fill="#111111"></rect><rect class="px" x="6" y="0" width="1.02" height="1.02" fill="#111111"></rect><rect class="px" x="0" y="1" width="1.02" height="1.02" fill="#111111"></rect><rect class="px" x="1" y="1" width="1.02" height="1.02" fill="#111111"></rect><rect class="px" x="2" y="1" width="1.02" height="1.02" fill="#111111"></rect><rect class="px" x="3" y="1" width="1.02" height="1.02" fill="#111111"></rect><rect class="px" x="4" y="1" width="1.02" height="1.02" fill="#111111"></rect><rect class="px" x="5" y="1" width="1.02" height="1.02" fill="#111111"></rect><rect class="px" x="6" y="1" width="1.02" height="1.02" fill="#111111"></rect><rect class="px" x="7" y="1" width="1.02" height="1.02" fill="#111111"></rect><rect class="px" x="0" y="2" width="1.02" height="1.02" fill="#111111"></rect><rect class="px" x="3" y="2" width="1.02" height="1.02" fill="#111111"></rect><rect class="px" x="4" y="2" width="1.02" height="1.02" fill="#111111"></rect><rect class="px" x="7" y="2" width="1.02" height="1.02" fill="#111111"></rect><rect class="px" x="0" y="3" width="1.02" height="1.02" fill="#111111"></rect><rect class="px" x="3" y="3" width="1.02" height="1.02" fill="#111111"></rect><rect class="px" x="4" y="3" width="1.02" height="1.02" fill="#111111"></rect><rect class="px" x="7" y="3" width="1.02" height="1.02" fill="#111111"></rect><rect class="px" x="0" y="4" width="1.02" height="1.02" fill="#111111"></rect><rect class="px" x="1" y="4" width="1.02" height="1.02" fill="#111111"></rect><rect class="px" x="2" y="4" width="1.02" height="1.02" fill="#111111"></rect><rect class="px" x="3" y="4" width="1.02" height="1.02" fill="#111111"></rect><rect class="px" x="4" y="4" width="1.02" height="1.02" fill="#111111"></rect><rect class="px" x="5" y="4" width="1.02" height="1.02" fill="#111111"></rect><rect class="px" x="6" y="4" width="1.02" height="1.02" fill="#111111"></rect><rect class="px" x="7" y="4" width="1.02" height="1.02" fill="#111111"></rect><rect class="px" x="1" y="5" width="1.02" height="1.02" fill="#111111"></rect><rect class="px" x="2" y="5" width="1.02" height="1.02" fill="#111111"></rect><rect class="px" x="3" y="5" width="1.02" height="1.02" fill="#111111"></rect><rect class="px" x="5" y="5" width="1.02" height="1.02" fill="#111111"></rect><rect class="px" x="6" y="5" width="1.02" height="1.02" fill="#111111"></rect><rect class="px" x="2" y="6" width="1.02" height="1.02" fill="#111111"></rect><rect class="px" x="3" y="6" width="1.02" height="1.02" fill="#111111"></rect><rect class="px" x="4" y="6" width="1.02" height="1.02" fill="#111111"></rect><rect class="px" x="5" y="6" width="1.02" height="1.02" fill="#111111"></rect><rect class="px" x="2" y="7" width="1.02" height="1.02" fill="#111111"></rect><rect class="px" x="4" y="7" width="1.02" height="1.02" fill="#111111"></rect><rect class="px" x="6" y="7" width="1.02" height="1.02" fill="#111111"></rect></g></g><text x="41.96" y="9" font-size="7" fill="#111">FUCK THIS, I AM</text><text x="31.15" y="16.5" font-size="7" fill="#111">SITTING ON THE FLOOR</text></svg>
